<svg xmlns="http://www.w3.org/2000/svg" fill="none" viewBox="0 0 24 24" height="24" width="24">
  <g id="Favorite">
    <path id="Union" fill="#ffffff" d="M16.5 4c2.0878 0 3.5176 0.91936 4.3867 2.18359C21.7205 7.39643 22 8.86215 22 10l-0.0078 0.2871c-0.0782 1.4362 -0.7307 2.8422 -1.5664 4.0957 -0.9013 1.3519 -2.085 2.6286 -3.2393 3.7188 -1.1585 1.0941 -2.3131 2.0247 -3.1758 2.6796 -0.4318 0.3279 -0.7927 0.5881 -1.0468 0.7676 -0.1272 0.0898 -0.2283 0.1594 -0.2979 0.2071 -0.0347 0.0238 -0.0613 0.0429 -0.0801 0.0556 -0.0094 0.0064 -0.0172 0.0112 -0.0224 0.0147 -0.0025 0.0016 -0.0059 0.0039 -0.0059 0.0039l-0.0019 0.001 -0.001 0.0009c-0.2941 0.1961 -0.666 0.2205 -0.9795 0.0733l-0.1299 -0.0733 -0.001 -0.0009 -0.0019 -0.001s-0.0034 -0.0023 -0.0059 -0.0039c-0.0052 -0.0035 -0.013 -0.0083 -0.0224 -0.0147 -0.0188 -0.0127 -0.0454 -0.0318 -0.0801 -0.0556 -0.0696 -0.0477 -0.1707 -0.1173 -0.2979 -0.2071 -0.2541 -0.1795 -0.615 -0.4397 -1.04684 -0.7676 -0.86268 -0.6549 -2.01724 -1.5855 -3.17578 -2.6796 -1.15432 -1.0902 -2.33798 -2.3669 -3.23926 -3.7188C2.68292 13.0459 2 11.5355 2 10c0 -1.13785 0.27952 -2.60357 1.11328 -3.81641C3.98244 4.91936 5.41216 4 7.5 4c2.18074 0 3.6299 1.14424 4.5 2.3291C12.8701 5.14424 14.3193 4 16.5 4m0 2c-2.1468 0 -3.2592 1.79901 -3.5381 2.77441h-1.9238C10.7592 7.79901 9.64684 6 7.5 6c-1.41205 0 -2.23243 0.58072 -2.73828 1.31641C4.22056 8.10354 4 9.13791 4 10c0 0.9645 0.44208 2.0791 1.23828 3.2734 0.78618 1.1793 1.85262 2.3403 2.94824 3.375 1.09125 1.0306 2.18698 1.9129 3.01168 2.5391 0.3118 0.2367 0.5848 0.4351 0.8018 0.5908 0.217 -0.1557 0.49 -0.3541 0.8018 -0.5908 0.8247 -0.6262 1.9204 -1.5085 3.0117 -2.5391 1.0956 -1.0347 2.162 -2.1957 2.9482 -3.375C19.5579 12.0791 20 10.9645 20 10l-0.0107 -0.33008c-0.0496 -0.78637 -0.2774 -1.66464 -0.751 -2.35351C18.7324 6.58072 17.9121 6 16.5 6" stroke-width="1"></path>
  </g>
</svg>